<svg width="30" height="30" viewBox="0 0 30 30" fill="none" xmlns="http://www.w3.org/2000/svg">
<path fill-rule="evenodd" clip-rule="evenodd" d="M0.1488 28.8487C-0.0450427 29.0453 -0.0450427 29.3642 0.1488 29.5609C0.342643 29.7575 0.656924 29.7575 0.850767 29.5609L14.8555 15.3518L29.1486 29.8492C29.3425 30.0459 29.6568 30.0459 29.8507 29.8492C30.0445 29.6526 30.0445 29.3338 29.8507 29.1371L15.5575 14.6396L29.1391 0.859714C29.333 0.66304 29.333 0.344176 29.1391 0.147504C28.9453 -0.0491669 28.631 -0.0491694 28.4372 0.147504L14.8554 13.9275L1.5582 0.440135C1.36433 0.243492 1.05 0.243492 0.85613 0.440135C0.662258 0.636779 0.662258 0.9556 0.85613 1.15224L14.1534 14.6397L0.1488 28.8487Z" fill="black"/>
</svg>
