<svg width="24" height="24" viewBox="0 0 24 24" fill="none" xmlns="http://www.w3.org/2000/svg">
<path d="M21.7928 16.2175L19.9257 14.3491C19.4303 13.8539 18.7588 13.5758 18.0586 13.5758C17.3584 13.5758 16.6869 13.8539 16.1915 14.3491L15.2579 15.2833C14.7627 15.7788 14.0911 16.0572 13.3908 16.0572C12.6905 16.0572 12.0189 15.7788 11.5237 15.2833L8.723 12.4807C8.22784 11.9851 7.94967 11.313 7.94967 10.6122C7.94967 9.91145 8.22784 9.23936 8.723 8.74381L9.65656 7.80959C10.1514 7.31386 10.4293 6.64184 10.4293 5.94116C10.4293 5.24048 10.1514 4.56845 9.65656 4.07272L7.78944 2.20429C7.56061 1.93154 7.27488 1.71224 6.95233 1.56177C6.62977 1.41131 6.2782 1.33334 5.92232 1.33334C5.56645 1.33334 5.21488 1.41131 4.89232 1.56177C4.56977 1.71224 4.28404 1.93154 4.05521 2.20429C-0.855312 7.08224 1.46258 12.7129 6.37043 17.6215C11.2783 22.5302 16.9063 24.8524 21.7928 19.9597C22.0663 19.7308 22.2863 19.4445 22.4372 19.1213C22.5881 18.798 22.6663 18.4455 22.6663 18.0886C22.6663 17.7318 22.5881 17.3793 22.4372 17.056C22.2863 16.7327 22.0663 16.4465 21.7928 16.2175Z" stroke="#2F2F38" stroke-linecap="round" stroke-linejoin="round"/>
</svg>
